<?xml version="1.0" encoding="UTF-8" standalone="no"?>
<!-- Created with Inkscape (http://www.inkscape.org/) -->

<svg
   xmlns:dc="http://purl.org/dc/elements/1.1/"
   xmlns:cc="http://creativecommons.org/ns#"
   xmlns:rdf="http://www.w3.org/1999/02/22-rdf-syntax-ns#"
   xmlns:svg="http://www.w3.org/2000/svg"
   xmlns="http://www.w3.org/2000/svg"
   xmlns:xlink="http://www.w3.org/1999/xlink"
   xmlns:sodipodi="http://sodipodi.sourceforge.net/DTD/sodipodi-0.dtd"
   xmlns:inkscape="http://www.inkscape.org/namespaces/inkscape"
   width="973.19147mm"
   height="243.93698mm"
   viewBox="0 0 973.19147 243.93698"
   version="1.1"
   id="svg8"
   inkscape:version="0.92.4 (5da689c313, 2019-01-14)"
   sodipodi:docname="JSSBlazorLogo.svg"
   inkscape:export-filename="d:\Users\garyw\Desktop\JSSBlazorLogo.png"
   inkscape:export-xdpi="16.66004"
   inkscape:export-ydpi="16.66004">
  <defs
     id="defs2">
    <linearGradient
       inkscape:collect="always"
       id="linearGradient4733">
      <stop
         style="stop-color:#652d89;stop-opacity:1;"
         offset="0"
         id="stop4729" />
      <stop
         style="stop-color:#ff0000;stop-opacity:1"
         offset="1"
         id="stop4731" />
    </linearGradient>
    <style
       id="style46">.cls-1{fill:#ee3524;}.cls-2{fill:#231f20;}</style>
    <linearGradient
       inkscape:collect="always"
       xlink:href="#linearGradient4733"
       id="linearGradient4735"
       x1="-731.71667"
       y1="281.2764"
       x2="-799.35522"
       y2="348.91498"
       gradientUnits="userSpaceOnUse" />
    <clipPath
       clipPathUnits="userSpaceOnUse"
       id="clipPath4779">
      <g
         inkscape:label="Clip"
         id="use4781">
        <g
           transform="translate(-424.51167,-173.1131)"
           id="g4824">
          <path
             style="fill:#ee3524;stroke-width:1.38030171"
             inkscape:connector-curvature="0"
             class="cls-1"
             d="m -734.56207,321.12426 a 62.003152,62.003152 0 0 0 22.31948,-7.21898 c 16.97771,-9.44127 26.77785,-25.68742 27.60603,-45.7294 l 0.0828,-1.72537 h 23.46513 a 69.015085,69.015085 0 0 0 -12.71258,-32.09202 l -24.00344,15.43177 c 7.3156,11.47031 8.28181,24.16909 2.7606,36.86786 -6.58404,15.03149 -22.08483,28.19957 -39.46283,34.50755"
             id="path4816" />
          <path
             style="fill:#ee3524;stroke-width:1.38030171"
             inkscape:connector-curvature="0"
             class="cls-1"
             d="m -660.70212,270.0669 h -20.41467 c -1.3803,20.27663 -12.00862,37.33716 -29.37282,46.99927 a 67.06886,67.06886 0 0 1 -32.69934,8.28181 75.516306,75.516306 0 0 1 -26.68125,-4.92768 64.998407,64.998407 0 0 0 34.34192,10.09001 h 0.17944 a 60.194957,60.194957 0 0 0 52.74133,-31.0844 l 0.9386,-1.65636 13.65119,8.65449 a 68.780434,68.780434 0 0 0 7.52264,-31.34665 c 0,-1.68397 -0.0828,-3.35413 -0.19324,-5.01049"
             id="path4818" />
          <path
             style="fill:#ee3524;stroke-width:1.38030171"
             inkscape:connector-curvature="0"
             class="cls-1"
             d="m -735.36264,334.1267 h -0.16564 c -21.86402,0 -42.41672,-10.89058 -57.03402,-29.52466 a 69.304948,69.304948 0 0 0 122.84681,5.0105 l -10.68354,-6.76348 a 63.68712,63.68712 0 0 1 -54.9222,31.27764"
             id="path4820" />
          <path
             style="fill:#ee3524;stroke-width:1.38030171"
             inkscape:connector-curvature="0"
             class="cls-1"
             d="m -729.85524,348.04014 a 72.976551,72.976551 0 1 1 73.00416,-72.96275 72.962748,72.962748 0 0 1 -72.96275,72.96275 m 0,-173.32448 A 100.36174,100.36174 0 1 0 -629.4659,275.07739 100.34793,100.34793 0 0 0 -729.85524,174.71566"
             id="path4822" />
        </g>
      </g>
    </clipPath>
  </defs>
  <sodipodi:namedview
     id="base"
     pagecolor="#ffffff"
     bordercolor="#666666"
     borderopacity="1.0"
     inkscape:pageopacity="0.0"
     inkscape:pageshadow="2"
     inkscape:zoom="0.35"
     inkscape:cx="2333.8954"
     inkscape:cy="-1222.0401"
     inkscape:document-units="mm"
     inkscape:current-layer="layer1"
     showgrid="false"
     inkscape:window-width="3840"
     inkscape:window-height="2275"
     inkscape:window-x="7667"
     inkscape:window-y="-13"
     inkscape:window-maximized="1"
     fit-margin-top="0"
     fit-margin-left="0"
     fit-margin-right="0"
     fit-margin-bottom="0" />
  <metadata
     id="metadata5">
    <rdf:RDF>
      <cc:Work
         rdf:about="">
        <dc:format>image/svg+xml</dc:format>
        <dc:type
           rdf:resource="http://purl.org/dc/dcmitype/StillImage" />
        <dc:title></dc:title>
      </cc:Work>
    </rdf:RDF>
  </metadata>
  <g
     inkscape:label="Laag 1"
     inkscape:groupmode="layer"
     id="layer1"
     transform="translate(1104.2984,390.105)">
    <g
       id="g4875"
       inkscape:export-xdpi="96"
       inkscape:export-ydpi="96"
       transform="translate(-360.58929,-232.07738)">
      <path
         sodipodi:nodetypes="ccccccccssscccccccssscc"
         inkscape:connector-curvature="0"
         id="path21"
         d="m -466.77657,-158.02612 c -0.19677,0.0114 -0.39828,0.0877 -0.61907,0.21241 -0.43275,0.24445 -1.6818,2.13625 -3.48247,5.27563 -6.30783,10.99731 -11.13298,17.6456 -17.73846,24.44142 -10.18048,10.47379 -21.82741,17.4199 -37.94602,22.63116 -2.31407,0.74816 -4.98181,1.5553 -5.92883,1.79319 -1.71863,0.43169 -1.72315,0.43103 -2.21279,-0.17365 -0.48197,-0.59518 -0.47779,-0.62685 0.2155,-1.8283 5.13244,-8.89433 6.97598,-12.911 9.43354,-20.55275 1.74717,-5.43282 3.62614,-14.67517 3.62614,-17.83458 0,-0.83122 -0.59206,-1.59732 -1.23458,-1.59732 -0.22169,0 -2.14772,1.69799 -4.28035,3.77341 -7.40047,7.20212 -14.62783,12.27272 -23.61456,16.568 -8.19727,3.91789 -15.95594,6.2662 -25.63926,7.75922 -3.33185,0.51369 -5.13662,0.56324 -26.85521,0.73845 -8.36917,0.0675 -13.83858,0.12576 -17.71314,0.19894 52.11829,4.19568 92.28034,47.708038 92.29566,99.994935 -0.034,18.1170577 -4.97144,35.887065 -14.28853,51.424787 5.14112,-2.365904 11.02857,-5.339583 14.58309,-7.430056 35.98352,-21.1625114 62.17714,-55.595048 71.68605,-94.233528 2.68579,-10.91343 3.72724,-19.17464 4.02921,-31.962913 0.49302,-20.879085 -2.99154,-38.250755 -10.91975,-54.438015 -1.78658,-3.64776 -2.5435,-4.80983 -3.39617,-4.76044 z"
         clip-path="none"
         style="fill:#5b2c90;stroke-width:0.26458335" />
      <g
         transform="translate(95.583595,-289.52977)"
         id="g104-5-8">
        <path
           style="fill:#ee3524;stroke-width:1.38030171"
           inkscape:connector-curvature="0"
           class="cls-1"
           d="m -734.56207,321.12426 a 62.003152,62.003152 0 0 0 22.31948,-7.21898 c 16.97771,-9.44127 26.77785,-25.68742 27.60603,-45.7294 l 0.0828,-1.72537 h 23.46513 a 69.015085,69.015085 0 0 0 -12.71258,-32.09202 l -24.00344,15.43177 c 7.3156,11.47031 8.28181,24.16909 2.7606,36.86786 -6.58404,15.03149 -22.08483,28.19957 -39.46283,34.50755"
           id="path54-1-3" />
        <path
           style="fill:#ee3524;stroke-width:1.38030171"
           inkscape:connector-curvature="0"
           class="cls-1"
           d="m -660.70212,270.0669 h -20.41467 c -1.3803,20.27663 -12.00862,37.33716 -29.37282,46.99927 a 67.06886,67.06886 0 0 1 -32.69934,8.28181 75.516306,75.516306 0 0 1 -26.68125,-4.92768 64.998407,64.998407 0 0 0 34.34192,10.09001 h 0.17944 a 60.194957,60.194957 0 0 0 52.74133,-31.0844 l 0.9386,-1.65636 13.65119,8.65449 a 68.780434,68.780434 0 0 0 7.52264,-31.34665 c 0,-1.68397 -0.0828,-3.35413 -0.19324,-5.01049"
           id="path56-7-7" />
        <path
           style="fill:#ee3524;stroke-width:1.38030171"
           inkscape:connector-curvature="0"
           class="cls-1"
           d="m -735.36264,334.1267 h -0.16564 c -21.86402,0 -42.41672,-10.89058 -57.03402,-29.52466 a 69.304948,69.304948 0 0 0 122.84681,5.0105 l -10.68354,-6.76348 a 63.68712,63.68712 0 0 1 -54.9222,31.27764"
           id="path58-1-7" />
        <path
           style="fill:url(#linearGradient4735);fill-opacity:1;stroke-width:1.38030171"
           inkscape:connector-curvature="0"
           class="cls-1"
           d="m -729.85524,348.04014 a 72.976551,72.976551 0 1 1 73.00416,-72.96275 72.962748,72.962748 0 0 1 -72.96275,72.96275 m 0,-173.32448 A 100.36174,100.36174 0 1 0 -629.4659,275.07739 100.34793,100.34793 0 0 0 -729.85524,174.71566"
           id="path60-7-5" />
      </g>
      <path
         sodipodi:nodetypes="cccscc"
         inkscape:connector-curvature="0"
         id="path21-3-6"
         d="m -723.40903,-76.558999 c -31.17423,42.223683 -25.91042,102.053126 12.12224,137.78349 -10.14885,-11.307036 -17.62269,-23.998618 -22.75148,-38.60986 -4.26781,-12.158474 -6.30044,-24.3295292 -6.30044,-37.731297 0,-13.468717 1.62912,-24.161429 5.56133,-36.505577 2.8152,-8.837688 6.65692,-17.197169 11.36835,-24.936756 z"
         style="fill:#5b2c90;stroke-width:0.36521035" />
      <path
         sodipodi:nodetypes="ccccscsc"
         id="path21-3-6-7"
         d="m -513.29052,41.622799 c -0.43027,0.009 -1.45534,0.57129 -3.60908,1.90738 -14.62902,9.07513 -30.91608,15.93985 -48.00534,20.30005 -12.41009,10.65726 -27.23707,18.11955 -43.19013,21.73719 3.26827,-0.17968 6.44737,-0.43024 9.21546,-0.74208 28.6847,-3.23151 53.35292,-13.68419 74.21563,-31.44771 3.50771,-2.98664 11.64167,-10.98304 11.64167,-11.44476 0,-0.2041 -0.0726,-0.31409 -0.26821,-0.31007 z"
         style="fill:#5b2c90;stroke-width:0.26458341"
         inkscape:connector-curvature="0" />
      <path
         sodipodi:nodetypes="ccccccccsccccsccccccccccccccsccccccc"
         inkscape:connector-curvature="0"
         id="path21-3-6-74"
         d="m -632.83113,-73.314675 c -11.07166,-0.08482 -21.89247,3.067455 -30.97516,9.174476 -13.1044,8.811238 -21.60235,22.207309 -24.08426,37.965994 -0.48799,3.098856 -0.67864,10.122868 -0.35341,13.030696 1.38533,12.38288557 6.91079,23.478176 16.2025,32.53486 3.13805,3.058712 5.28694,4.797321 8.82597,7.140433 13.20551,4.937629 44.51746,-8.936085 49.23814,-20.9903928 -3.70957,3.3652635 -8.55388,6.1059568 -13.32006,7.4830998 -8.7464,2.527218 -18.528,1.273174 -26.18682,-3.3567801 -4.05738,-2.4527949 -7.83016,-5.916001 -10.42465,-9.56954939 -1.82114,-2.56471741 -4.06557,-7.16122131 -4.91512,-10.06406481 -2.59988,-8.8852017 -1.41534,-18.6206367 3.22375,-26.4922967 4.25768,-7.224858 10.84197,-12.575796 18.70907,-15.204046 4.96787,-1.659723 5.28516,-1.68735 19.59151,-1.68735 14.18269,0 13.69006,-0.0471 16.92859,1.62464 2.23285,1.152655 4.90321,3.85613 5.98567,6.060476 0.57144,1.16373 0.92814,1.825131 1.16057,2.935725 l 12.04526,-7.744242 c -3.14546,-5.010624 -7.02751,-9.590387 -11.57135,-13.566867 -0.0902,-0.0607 -0.17854,-0.123464 -0.2692,-0.18365 -5.30668,-3.520538 -12.85333,-6.713525 -18.71087,-7.916693 -3.69117,-0.758175 -7.40966,-1.146181 -11.10013,-1.174468 z m 10.21724,33.46207 c -1.54955,0.0025 -3.52712,0.01285 -6.05913,0.03001 l -11.32317,0.07659 -1.95746,0.606048 c -7.44629,2.306289 -12.77344,7.997033 -14.32161,15.299456 -0.51212,2.415413 -0.41041,6.702744 0.21768,9.17806 1.96113,7.7316092 8.14025,13.4790402 16.11961,14.99307021 2.2607,0.42894997 6.05411,0.28907347 8.3467,-0.30817517 6.21579,-1.61938894 10.84562,-5.46384444 13.54493,-11.24614504 1.67186,-3.581573 1.62566,-3.143902 1.71466,-16.219053 l 0.0806,-11.737526 -0.54872,-0.359687 c -0.36805,-0.241148 -1.16486,-0.318043 -5.81321,-0.312654 z"
         style="fill:#5b2c90;stroke-width:0.22274838" />
    </g>
    <text
       xml:space="preserve"
       style="font-style:normal;font-weight:normal;font-size:40.91558075px;line-height:1.25;font-family:sans-serif;letter-spacing:0px;word-spacing:0px;fill:#5b2c90;fill-opacity:1;stroke:none;stroke-width:1.02288961"
       x="-820.69434"
       y="-174.57256"
       id="text846"><tspan
         sodipodi:role="line"
         id="tspan844"
         x="-820.69434"
         y="-174.57256"
         style="font-style:normal;font-variant:normal;font-weight:bold;font-stretch:condensed;font-size:196.39480591px;font-family:'Agency FB';-inkscape-font-specification:'Agency FB Bold Condensed';fill:#5b2c90;fill-opacity:1;stroke-width:1.02288961">JSSBlazor</tspan></text>
  </g>
</svg>
